<svg width="47" height="47" viewBox="0 0 47 47" fill="none" xmlns="http://www.w3.org/2000/svg">
<g clip-path="url(#clip0_448_10217)">
<path d="M15.3087 0H47V31.6913C47 35.7514 45.3871 39.6453 42.5162 42.5162C39.6453 45.3871 35.7514 47 31.6913 47H0V15.3087C0 11.2486 1.61287 7.35474 4.48381 4.48381C7.35474 1.61287 11.2486 0 15.3087 0Z" fill="url(#paint0_linear_448_10217)"/>
<path d="M38.5742 19.2129L35.31 20.7086L33.0185 21.7588L32.9163 21.8048L29.7656 23.2279C29.7656 23.2157 29.7605 23.2034 29.7564 23.1912C29.5704 22.4159 29.2118 21.6926 28.7072 21.0754L28.416 20.4389L31.5596 18.9984L33.8848 17.9328L37.1776 16.4238C37.3601 16.7085 37.5304 16.9997 37.6884 17.2973L38.5486 19.1741L38.5742 19.2129Z" fill="white"/>
<path d="M39.1068 27.8364C38.8648 28.8658 38.5137 29.8666 38.0596 30.8216L27.8503 29.0787L27.9464 28.5158C28.6911 27.9108 29.2563 27.1138 29.581 26.2109L39.1068 27.8364Z" fill="white"/>
<path d="M20.7044 29.46L16.5801 32.3809L13.6316 34.4691C12.9277 33.7001 12.3062 32.8594 11.7773 31.961L14.7105 29.8829L16.7711 28.423L18.9023 26.9141L20.7044 29.46Z" fill="white"/>
<path d="M21.0977 16.6313L19.8227 19.4776L17.9551 18.6409L15.59 17.5814L12.2605 16.0888C12.8674 15.1888 13.571 14.358 14.3589 13.6113L17.9919 15.2388L20.7697 16.4852L21.0977 16.6313Z" fill="white"/>
<path d="M35.5723 27.2334C35.0737 29.1698 34.0709 30.9395 32.6661 32.3624C31.2613 33.7854 29.5046 34.8107 27.5748 35.3341C25.6449 35.8576 23.6108 35.8603 21.6796 35.3422C19.7483 34.8241 17.9888 33.8036 16.5801 32.3845C15.8451 31.6421 15.216 30.8019 14.7105 29.8876L11.7773 31.9656C13.2827 34.531 15.522 36.5865 18.2066 37.8672C20.8912 39.1478 23.898 39.5948 26.839 39.1506C29.78 38.7063 32.5205 37.3911 34.707 35.3746C36.8936 33.3581 38.4258 30.7327 39.1062 27.8372L35.5723 27.2334Z" fill="white"/>
<path d="M17.9921 15.2398C19.4232 14.2084 21.0755 13.5256 22.8173 13.2458C24.559 12.9661 26.3421 13.0971 28.0242 13.6285C29.7063 14.1599 31.241 15.077 32.506 16.3066C33.7709 17.5362 34.7311 19.0443 35.3099 20.7107L38.5741 19.215C38.5679 19.1997 38.5628 19.1843 38.5567 19.17L37.6965 17.2933C37.535 16.9963 37.3648 16.7052 37.1856 16.4198C35.8575 14.3347 34.0314 12.6128 31.8719 11.4092C29.7124 10.2057 27.2874 9.55846 24.8154 9.52572C22.3434 9.49299 19.9021 10.0758 17.7115 11.2217C15.5208 12.3676 13.6498 14.0406 12.2668 16.0898L15.5964 17.5824C16.2743 16.687 17.0817 15.8974 17.9921 15.2398Z" fill="white"/>
<path d="M13.506 22.2503C13.6309 21.6084 13.8107 20.9784 14.0434 20.3674L10.7742 18.9023C9.4874 22.144 9.37536 25.7337 10.4575 29.0493L13.5592 26.8527C13.2256 25.3385 13.2075 23.7718 13.506 22.2503Z" fill="white"/>
<path d="M35.1461 20.2725L32.8954 21.4034L32.7974 21.4535L29.71 23.0033" fill="white"/>
<path d="M18.7528 26.994L16.7596 28.4059C16.255 27.4181 15.943 26.3433 15.8401 25.2388L16.9516 24.4521L18.7528 26.994Z" fill="white"/>
<path d="M20.2524 19.7299L18.9774 22.5762L16.3354 21.3891C16.6948 20.3979 17.2306 19.48 17.9169 18.6797L20.2524 19.7299Z" fill="white"/>
<path d="M33.0919 26.8101C32.6106 28.5135 31.6273 30.0324 30.2702 31.1688C28.9131 32.3052 27.2451 33.0064 25.4836 33.1811C23.7222 33.3558 21.949 32.9958 20.3951 32.148C18.8412 31.3002 17.5788 30.0041 16.7723 28.4284C16.7675 28.4218 16.7638 28.4146 16.761 28.4069C15.9711 26.8536 15.6595 25.1009 15.8655 23.3704C16.0716 21.64 16.786 20.0095 17.9186 18.685L17.9564 18.6421C18.9833 17.4587 20.3071 16.5703 21.7915 16.0686C23.2758 15.5669 24.8671 15.4699 26.4014 15.7876C27.9358 16.1054 29.3577 16.8263 30.5207 17.8763C31.6837 18.9262 32.5459 20.2672 33.0184 21.7612L32.9162 21.8061L29.7655 23.2282C29.7655 23.216 29.7604 23.2037 29.7563 23.1915C29.4626 21.9557 28.7339 20.867 27.7036 20.1242C26.6733 19.3815 25.4101 19.0343 24.1449 19.1461C22.8797 19.258 21.697 19.8214 20.813 20.7334C19.9289 21.6454 19.4026 22.8451 19.3302 24.1131C19.2578 25.3812 19.6442 26.633 20.4187 27.6397C21.1931 28.6464 22.304 29.3407 23.5483 29.5959C24.7925 29.851 26.087 29.6498 27.1952 29.0291C28.3034 28.4085 29.1512 27.4097 29.5836 26.2155L33.0919 26.8101Z" fill="white"/>
</g>
<defs>
<linearGradient id="paint0_linear_448_10217" x1="0.75137" y1="1.1723" x2="69.547" y2="68.6944" gradientUnits="userSpaceOnUse">
<stop stop-color="#3B916F"/>
<stop offset="1" stop-color="#096AA5"/>
</linearGradient>
<clipPath id="clip0_448_10217">
<rect width="47" height="47" fill="white"/>
</clipPath>
</defs>
</svg>
